<?xml version="1.0" encoding="utf-8"?>
<!-- Generator: Adobe Illustrator 21.0.0, SVG Export Plug-In . SVG Version: 6.00 Build 0)  -->
<svg version="1.1" id="Layer_1" xmlns="https://www.w3.org/2000/svg" xmlns:xlink="https://www.w3.org/1999/xlink" x="0px" y="0px"
	 viewBox="0 0 197.7 213.9" style="enable-background:new 0 0 197.7 213.9;" xml:space="preserve">
<style type="text/css">
	.st0{fill:#F9EC82;stroke:#01324B;stroke-width:3;stroke-miterlimit:10;}
	.st1{fill:#7DA1AB;}
	.st2{fill:#01324B;}
	.st3{fill:#F9EC82;}
	.st4{fill:#C6BA7D;}
	.st5{fill:#932A8E;}
	.st6{opacity:0.59;fill:#FFFFFF;enable-background:new    ;}
	.st7{fill:#372F15;}
	.st8{opacity:0.61;fill:#C6BA7D;enable-background:new    ;}
	.st9{fill:#E2D9C3;stroke:#C8B299;stroke-width:2;stroke-miterlimit:10;}
	.st10{fill:#242815;}
	.st11{fill:#E2D9C3;}
	.st12{fill:#C8B299;}
	.st13{fill:#877353;}
	.st14{fill:#38392C;}
	.st15{fill:#5C4D2A;}
	.st16{fill:#746235;}
	.st17{fill:#3A4C40;}
	.st18{fill:#546759;}
	.st19{opacity:0.53;fill:#7DA1AB;enable-background:new    ;}
	.st20{fill:#E5EAD6;}
	.st21{fill:#FFFFFF;}
</style>
<g>
	<path class="st0" d="M115.5,162.3c0,0,9.2-2.4,24.8,0.2c0,0,15.7-2.8,21,1.9c0,0,6.9,0.7,12.5,6.5s19,20.5,23.9,42.5h-76H0.6
		l-0.2-16.1c0,0,7.1-4.1,14.9-10.2s13.3-13.3,17.8-15.2L115.5,162.3z"/>
	<path class="st1" d="M113.7,173c0,0,8.3,11.5,7.9,40.1C121.6,213.1,120.9,192.2,113.7,173z"/>
	<path class="st2" d="M102.6,186.1c0,0-2.8,24.9-19.2,27.9H39.8l-15.1-11.4c0,0-8.4,0-9.5,3.8c0,0,2.2-12.6,9-19.1s-3.9-4.4-3.9-4.4
		s7.8-10.4,12.8-10.9c0,0-1.8,36.6,38.8,37.4C71.9,209.3,92.1,211.8,102.6,186.1z"/>
	<g>
		<path class="st2" d="M197.6,212.9c0,0-6.5-30.5-29.6-46.5c0,0-3.7-1.6-6.7-2.1s-2.8-4.2-21-1.9c0,0-15.5-2.4-18.8-0.7
			c0,0-5.7,10.7-7.8,11.2c0,0,7.8,13,7.9,40H197.6z"/>
		<path class="st1" d="M160.9,168.4c0,0,10.4,26.4,4.2,43.6l-17.5-37l-2.7-10.6c0,0,14,20.7,18.9,41.2
			C163.8,205.4,167.4,194,160.9,168.4z"/>
		<path class="st1" d="M171.9,173.8c0,0,6.5,14.1,6.5,26.7C178.4,200.5,181.1,186.1,171.9,173.8z"/>
		<path class="st1" d="M140.8,168.2c0,0,8.2,21.4,1.4,32.3C142.2,200.5,143.8,188,140.8,168.2z"/>
	</g>
	<g>
		<path class="st3" d="M120,35.1c0,0,14.7,34.4,15.5,41.1s1.8,17.7-4.7,28.2c0,0-1.2,11,0,19s1.2,16.6-4.6,30s-5.5,16.5-15,26.1
			s-11.4,15.4-11.4,15.4s-4.6,10.2-19.9,11.9c0,0-10.6,1.4-17.4-6.4c0,0-23.2-11.6-30.1-25.3c0,0-4.9-6.8-9.4-42
			c0,0-5.9,2.2-6.9-8.2v-7.1v-7.5l-4.6-9.5l-2.4-8.4l-1.5-7c0,0-15.6-45,35.7-64.9S120,35.1,120,35.1z"/>
		<path class="st2" d="M120.2,35c2.4,5.6,4.7,11.2,7.1,16.9c1.2,2.8,2.3,5.6,3.4,8.5c1.1,2.8,2.3,5.7,3.3,8.5c0.5,1.4,1,2.9,1.5,4.4
			c0.5,1.4,0.8,3.1,0.9,4.6c0.2,1.5,0.3,3.1,0.4,4.6c0.1,1.5,0.1,3.1,0.1,4.6c-0.1,1.5-0.2,3.1-0.4,4.6s-0.5,3.1-0.9,4.6
			c-0.2,0.8-0.5,1.5-0.7,2.2c-0.3,0.7-0.6,1.5-0.8,2.2l-1,2.1l-1.1,2.1l0.2-0.4c-0.2,2-0.3,4.1-0.4,6.1c-0.1,2.1-0.1,4.1,0,6.1
			s0.2,4.1,0.5,6c0.3,2,0.6,4.2,0.7,6.3c0.2,4.3-0.2,8.6-1.2,12.7c-0.5,2.1-1.1,4.1-1.8,6.1s-1.5,3.9-2.3,5.9
			c-0.8,1.9-1.7,3.8-2.4,5.7c-0.8,1.9-1.6,3.8-2.4,5.8c-0.8,1.9-1.8,3.8-2.9,5.7c-1.1,1.8-2.5,3.5-3.8,5.1c-1.4,1.6-2.9,3.1-4.3,4.5
			c-1.5,1.5-2.9,2.9-4.2,4.5c-1.3,1.5-2.6,3.1-3.8,4.8c-1.2,1.6-2.3,3.4-3,5.2v0.1c-0.5,0.9-1,1.6-1.6,2.4c-0.6,0.7-1.2,1.4-1.9,2.1
			l-1,1l-1.1,0.9c-0.4,0.3-0.7,0.5-1.1,0.8s-0.8,0.5-1.2,0.8c-0.4,0.2-0.8,0.5-1.2,0.7l-1.2,0.6c-0.8,0.4-1.7,0.7-2.5,1.1
			c-0.9,0.3-1.7,0.6-2.6,0.8s-1.8,0.4-2.7,0.6c-0.9,0.1-1.8,0.3-2.7,0.4c-0.9,0.1-1.9,0.1-2.8,0c-0.9,0-1.8-0.1-2.7-0.3
			c-0.9-0.1-1.8-0.3-2.7-0.6c-0.4-0.1-0.9-0.3-1.3-0.4c-0.4-0.2-0.9-0.3-1.3-0.5c-0.9-0.3-1.7-0.8-2.5-1.3s-1.6-1-2.2-1.6
			c-0.7-0.6-1.3-1.3-2-1.9l0.1,0.1c-1.5-0.8-3-1.6-4.4-2.4c-1.4-0.8-2.9-1.7-4.3-2.6c-0.7-0.4-1.4-0.9-2.1-1.4
			c-0.7-0.5-1.4-0.9-2.1-1.4l-2-1.4l-2-1.5c-0.7-0.5-1.3-1-2-1.5c-0.6-0.5-1.3-1-1.9-1.6l-1.9-1.7l-1.8-1.8
			c-0.6-0.6-1.1-1.2-1.7-1.9c-0.6-0.6-1.1-1.3-1.6-2s-1.1-1.3-1.5-2.1l-1.3-2.2l0.1,0.1c-0.6-0.9-0.9-1.7-1.2-2.6
			c-0.3-0.9-0.7-1.7-0.9-2.6c-0.6-1.7-1.1-3.5-1.6-5.2c-0.5-1.8-0.9-3.5-1.3-5.3s-0.8-3.5-1.2-5.3c-0.3-1.8-0.7-3.5-1-5.3
			s-0.6-3.6-0.9-5.3c-0.3-1.8-0.6-3.6-0.8-5.3l-0.8-5.4l1.7,1c-0.4,0.2-0.7,0.2-1.1,0.2c-0.3,0-0.7,0.1-1,0c-0.3,0-0.7-0.1-1-0.2
			c-0.3-0.1-0.6-0.2-1-0.3c-0.3-0.2-0.6-0.3-0.9-0.5c-0.2-0.2-0.5-0.4-0.7-0.6l-0.6-0.7l-0.5-0.8c-0.2-0.3-0.3-0.5-0.4-0.8
			s-0.3-0.5-0.3-0.8c-0.2-0.5-0.4-1.1-0.5-1.6c-0.1-0.5-0.3-1.1-0.3-1.6l-0.3-1.6l0,0v-0.1V110l0.2,0.6l-4.8-9.5l-0.1-0.1v-0.1
			l-2.5-8.4l0,0v-0.1l-1.5-7L7,85.6c-0.6-1.8-1-3.5-1.3-5.2c-0.3-1.7-0.6-3.5-0.8-5.3c-0.3-3.5-0.4-7.1,0-10.7
			c0.3-3.5,1-7.1,2.1-10.5c1-3.4,2.5-6.7,4.3-9.8c1.8-3.1,3.9-6,6.4-8.6s5.1-5,8-7.1c1.4-1.1,2.9-2,4.4-3c1.5-0.9,3.1-1.7,4.6-2.6
			c1.6-0.7,3.2-1.5,4.8-2.2c1.6-0.6,3.2-1.3,4.9-1.9c1.6-0.5,3.2-1.2,4.9-1.7s3.4-1,5.1-1.4c1.7-0.4,3.4-0.8,5.1-1.1l2.6-0.5
			l2.6-0.3c1.7-0.3,3.5-0.3,5.2-0.5c0.9,0,1.7,0,2.6-0.1c0.9,0,1.7,0,2.6,0c3.5,0,7,0.5,10.4,1.1s6.8,1.6,10.1,2.8
			c3.3,1.2,6.4,2.7,9.4,4.4s5.9,3.7,8.6,5.9C115.5,29.8,118,32.2,120.2,35L120.2,35L120.2,35z M119.9,35.2c-2.1-2.7-4.7-5.1-7.3-7.3
			c-2.7-2.2-5.6-4.1-8.6-5.7c-3-1.7-6.2-3.1-9.4-4.1c-3.3-1.1-6.6-1.9-10-2.4s-6.8-0.8-10.2-0.7c-0.9,0-1.7,0-2.6,0.1
			s-1.7,0.1-2.6,0.2c-1.7,0.2-3.4,0.3-5.1,0.6l-2.5,0.4l-2.5,0.5c-1.7,0.3-3.3,0.8-5,1.3c-0.8,0.2-1.6,0.5-2.4,0.7l-2.4,0.8
			c-1.6,0.5-3.2,1.2-4.9,1.8c-1.5,0.6-3.1,1.3-4.7,2c-1.5,0.7-3,1.5-4.6,2.3c-1.5,0.9-3,1.7-4.4,2.6c-1.4,0.9-2.8,1.8-4.2,2.9
			c-2.7,2-5.2,4.3-7.5,6.7c-2.3,2.5-4.2,5.2-5.9,8.1c-3.4,5.8-5.3,12.3-6,19c-0.3,3.3-0.3,6.7,0,10.1c0.3,3.3,0.9,6.7,1.8,9.8V85
			v0.1l1.5,7.1v-0.1l2.4,8.4l-0.1-0.2l4.7,9.5l0.2,0.3v0.3l-0.1,14.7V125l0.2,1.4c0.1,0.5,0.2,0.9,0.3,1.4c0.1,0.5,0.3,0.9,0.4,1.3
			c0.1,0.2,0.2,0.4,0.3,0.6c0.1,0.2,0.2,0.4,0.3,0.6l0.3,0.5l0.4,0.5c0.1,0.1,0.3,0.2,0.4,0.4c0.1,0.1,0.3,0.2,0.4,0.3
			c0.2,0.1,0.3,0.1,0.5,0.2c0.2,0,0.3,0.1,0.5,0.1s0.4,0,0.5,0c0.2,0,0.4-0.1,0.4-0.1l1.5-0.3l0.2,1.3l0.7,5.3
			c0.2,1.8,0.5,3.6,0.7,5.3c0.2,1.8,0.5,3.5,0.8,5.3s0.6,3.5,0.9,5.3s0.6,3.5,1,5.3s0.8,3.5,1.2,5.2c0.4,1.7,0.9,3.5,1.4,5.1
			c0.3,0.8,0.5,1.7,0.9,2.5c0.3,0.8,0.7,1.7,1,2.3l0.1,0.1L34,177c0.4,0.7,0.9,1.3,1.4,2c0.4,0.7,1,1.3,1.5,1.9
			c0.5,0.6,1,1.3,1.6,1.8l1.7,1.8l1.8,1.7c0.6,0.6,1.2,1.1,1.9,1.6c0.6,0.5,1.3,1.1,1.9,1.6c1.3,1,2.6,2,4,3c0.7,0.5,1.4,0.9,2,1.4
			c0.7,0.5,1.4,0.9,2.1,1.4c1.4,0.9,2.8,1.8,4.2,2.6s2.9,1.6,4.3,2.4h0.1l0.1,0.1c0.6,0.6,1.2,1.3,1.9,1.8c0.6,0.6,1.4,1.1,2.1,1.6
			c0.8,0.4,1.5,0.9,2.3,1.2c0.4,0.2,0.8,0.3,1.2,0.5c0.4,0.2,0.8,0.3,1.3,0.4c0.8,0.2,1.7,0.4,2.6,0.6c0.9,0.1,1.8,0.2,2.6,0.3
			c0.9,0,1.8,0,2.6,0c0.9-0.1,1.8-0.3,2.6-0.4c0.9-0.1,1.7-0.4,2.6-0.6c0.9-0.2,1.7-0.5,2.5-0.8c0.8-0.4,1.7-0.6,2.4-1.1l1.2-0.6
			c0.4-0.2,0.8-0.5,1.1-0.7c0.4-0.2,0.7-0.5,1.1-0.7c0.3-0.3,0.7-0.5,1.1-0.8l1-0.9l0.9-0.9c0.6-0.6,1.2-1.3,1.7-2s1-1.5,1.3-2.2
			v0.1c0.4-1.1,0.9-2,1.4-2.9s1.1-1.8,1.7-2.7c1.2-1.8,2.4-3.4,3.8-5c1.3-1.6,2.8-3.2,4.2-4.7c1.4-1.5,2.8-3,4.1-4.6
			c1.3-1.6,2.5-3.2,3.5-4.9s1.9-3.6,2.6-5.5l2.3-5.8c0.8-1.9,1.6-3.9,2.4-5.8c1.6-3.8,3-7.6,3.9-11.5c0.5-2,0.8-4,1-6s0.3-4,0.2-6
			c-0.1-2-0.3-4-0.6-6.1s-0.4-4.2-0.4-6.4c0-4.2,0.2-8.4,0.7-12.6v-0.2l0.1-0.2l1.1-1.9l1-2c0.3-0.7,0.6-1.4,0.9-2
			c0.2-0.7,0.5-1.4,0.7-2.1c0.4-1.4,0.8-2.9,1.1-4.3c0.3-1.5,0.4-3,0.6-4.4c0.1-1.5,0.1-3,0.1-4.5s-0.1-3-0.3-4.5
			c-0.1-1.5-0.3-2.9-0.7-4.4s-0.8-2.9-1.3-4.3c-1.9-5.8-4-11.5-6.3-17.1C124.6,46.4,122.3,40.8,119.9,35.2z"/>
	</g>
	<path class="st4" d="M87.5,57.7c0,0-2.9,1.9,11.6,6.5l-16.3-4.4l12.3,6c0,0-22.7-3.3-27.2-6.3c-2.5-1.7,1.8,0.4,6.1,2.7
		c3.4,1.8,6.9,3.6,6.9,3.6l-9.3-2.5c0,0,9.8,7.4,14.9,7.9c5,0.5-6.1,0.7-13.1-3.5s1.2,3.8,1.2,3.8s-23.7-9-29.2-18.3
		c0,0,6.5,11.4,15.6,13.9l-7.9-0.3c0,0,8,2.5,14.7,3.5l-14.7,5.2c0,0-6.4-2.7-10.4,1.9S23.6,92.9,23.6,92.9l-1.5-5.4
		c0,0,8.5-11.5,8.8-15.8l10.9-23.4l7.9-17.4L87.5,57.7z"/>
	<path class="st5" d="M6.8,80.7c0,0-0.5,10.2,8.7,29l1.8,7.1c0,0,1.6-2.7,0-12.3l0.8-11.4c0,0,9.5-12.3,11.7-18.8
		c2.2-6.5,12.5-18,12-27.8c0,0,13.9,16.4,25.6,21c0,0-18.6-14.1-12.5-12.3c2.7,0.8,7.7,8.4,19.1,11.4c0,0-22.7-13.1-26.8-24.5
		l7.4,6.3c0,0-4-4.2-5-8.9c0,0,14.3,19.4,32.7,22.7c0,0-20-11-22.7-18.4c0,0,19,16.4,36.6,15.7c0,0,19.6,4.9,27.8,2.5
		c0,0,20,15.8,6.8,40.2c0,0,17.8-18.8,12.9-38.8c-5.2-21.5-14.2-30-14.2-30s-4.4-15.3-21.8-20.7c0,0-8.4-7.1-21.3-7.9
		c0,0-9.3-6-21.3-4.4c0,0-17.6-1.4-25.3,11.7c0,0-7.4-4.4-13.4,8.4C26.6,20.6-7.4,41.9,6.8,80.7z M116.7,46.5l4.9,3.5
		c0,0-4.8-4.4-4-8.2c0,0,10.5,13.6,12.3,20.2C130,62.1,118.5,56.1,116.7,46.5z M89.4,44.9c4.2,0.5,14.7,10.6,14.7,10.6
		C93.3,52.8,89.4,44.9,89.4,44.9z M86.4,31l25.9,24.5C90.7,47.1,86.4,31,86.4,31z"/>
	<path class="st2" d="M142.2,53.7l-6.1-10.8c0,0,1.2,6.9,1,6.3s-6.7-9.2-6.7-9.2l4.6,10.6L127.3,40l2.7,11l-10.7-17
		c0,0,5.3,15.9,5.3,15.1s-8.2-10.2-8.2-10.2s27.7,39.7,15.5,61.2c-4.1,7.3,10.2-12.6,12.2-21.5C146.4,68.7,142.2,53.7,142.2,53.7z"
		/>
	<path class="st2" d="M119.3,62.1c0,0-14.3-0.5-23.1-2.5c0,0-13.9,2-36.6-15.7c0,0,28.8,16.7,35.4,13C95,56.9,113.2,65,119.3,62.1z"
		/>
	<path class="st6" d="M124,62.1c0,0-13-4.8-16.1-10.7C104.8,45.5,86.4,31,86.4,31l16.5,10C102.9,41,114.2,57.6,124,62.1z"/>
	<path class="st2" d="M109.5,58.5c0,0-16.1-3-20.1-13.6l-10.6-4.7l7.6,6.3C86.4,46.5,96.8,60.8,109.5,58.5z"/>
	<path class="st2" d="M28.7,69.3c0,0-8.7,16.2-5.6,20.4l0.4,5.2h-2l-2.2-4.2c0,0-6.7,0.9-5.5,10.5l-2.1-16.5L9,88.9V78.6l7.5-6.4
		l-3,4.1l5.5-4v2.9C19,75.1,26.6,68.7,28.7,69.3z"/>
	<path class="st6" d="M30.6,55.7c0,0-10.6,11.7-15.7,16.6l-5.1,4.9C9.8,77.2,17.7,62.9,30.6,55.7z"/>
	<polygon class="st6" points="14.2,62.7 4.9,71.7 14.2,53.3 11.5,62.1 	"/>
	<path class="st6" d="M31.9,46.5L17.5,60.3c0,0,5.7-12.4,8.6-13.8l-1.4,4.4L31.9,46.5z"/>
	<g>
		<path class="st7" d="M106.6,54.5c0,0.1-0.5-0.4-1.5-1.4C106,53.9,106.5,54.4,106.6,54.5z"/>
		<path class="st2" d="M28.7,27.5c0,0-1.6-6.5,4.4-7.5h6.3c0,0-2-4.9,0.1-5.3c0,0,1.9-9.5,12.2-9.9c0,0,6.5-5.4,19-4.8
			s42.6,11,43,19.6c0,0,10.7,7.8,9.2,12.9c0,0-4.3-7.4-8.5-8.8l4.9,10.4l-15.2-17.2l2.5,9.8L99,14.4l3.6,9.8L99,19.9l11.7,24.4
			c0,0-17.5-25.8-21.3-27.4L97.2,31L84.6,19.5l3,4.9l-4.9-3.3l8,9.8L78.9,20.8L86.5,31l-8.8-7.4c0,0,21.6,23.4,27.5,29.5
			C100.6,49,86.3,36.8,78.4,29l9.5,11c0,0-6.6-4.1-11.3-8.1l7.5,8.1l-10.7-9l4.9,7.2L67,28.1L77,42l-15-9.8l7.1,6.3L59.6,34l4.7,7.2
			L49.7,25.4c0.2,0.3,0.3,0.5,0.3,0.5L45.6,23l1.8,4h-5.9c0,0-5.7-6.4-10.8,3.9c0,0-6.7-0.4-5.9,5.1C24.7,35.9,22.1,31.3,28.7,27.5z
			"/>
	</g>
	<path class="st8" d="M64.9,142c0,0-5.3,5.2-5.2,9.7l0,0c0,0-5.8,1.7-4.2,8.9l0,0c0,0-15.7,2.7-14-7.7C43.1,142.6,64.9,142,64.9,142
		"/>
	<polyline class="st2" points="25.2,96.1 22.1,86.6 18.2,89.4 21.4,98 25.2,96.1 	"/>
	<path class="st9" d="M104.1,110c0,0,3.6-0.8,8.2,0s9.8-0.1,12.4-2.8c0,0,0.4-5.5-16.1-2.8C108.5,104.5,104.2,105.3,104.1,110z"/>
	<path class="st8" d="M119.3,156c0,0,9.9-12.5,0-16.8s-8.5,5.5-8.5,5.5s1.1,7.1,6.9,7.6C117.7,152.3,119.7,153.1,119.3,156z"/>
	<path class="st10" d="M124.7,108.2c0,0,3.4-0.2,3.9,0.5l-1.2-1c0,0,2.2,0.2,3.1,0.6c0,0-6-3.6-8.9-4.2c0,0,4.2,2.4,3.2,3.3
		c-1.1,0.9-1.9,1.4-1.9,1.4L124.7,108.2z"/>
	<g>
		<path class="st11" d="M65.4,101.5c0,0,4.5,1.2,5.8,3.7s3.8,3,3.8,3v0.9c0,0-5.5-1-7.6-0.2s-9.7,1-14.4-2.5l-5.6-2.5
			c0,0,3.8-3.5,9.8-3.8S65.4,101.5,65.4,101.5z"/>
		<path class="st12" d="M65.4,101.4c1,0.1,2,0.4,2.9,0.8s1.9,0.9,2.7,1.7c0.2,0.2,0.4,0.4,0.5,0.7l0.2,0.3l0.2,0.3
			c0.1,0.2,0.2,0.3,0.4,0.5c0.1,0.2,0.3,0.3,0.5,0.5c0.3,0.3,0.7,0.5,1,0.7c0.2,0.1,0.4,0.2,0.6,0.3s0.4,0.2,0.5,0.2l0.7,0.2v0.7
			c0,0.3,0,0.6,0,0.9v1.1l-1.1-0.2c-0.9-0.2-1.8-0.3-2.7-0.5c-0.9-0.1-1.8-0.3-2.7-0.3c-0.5,0-0.9,0-1.3,0l-0.3,0.1l-0.4,0.1
			c-0.2,0.1-0.5,0.1-0.7,0.1c-0.5,0.1-1,0.1-1.4,0.1c-0.5,0-1,0.1-1.4,0c-0.5,0-1,0-1.4,0c-0.5,0-1,0-1.4-0.1
			c-1-0.1-1.9-0.2-2.9-0.4c-0.9-0.2-1.9-0.4-2.8-0.8c-0.5-0.2-0.9-0.4-1.4-0.6c-0.5-0.2-0.9-0.5-1.3-0.8l0.2,0.1
			c-1.9-0.7-3.7-1.5-5.6-2.3l-1.5-0.6l1.2-1.1c0.4-0.3,0.7-0.6,1-0.8c0.3-0.2,0.7-0.5,1.1-0.7c0.7-0.4,1.5-0.8,2.3-1.1
			c0.8-0.3,1.6-0.6,2.4-0.8c0.8-0.2,1.7-0.3,2.5-0.4c0.4,0,0.8,0,1.3,0c0.4,0,0.8,0,1.2,0c0.8,0.1,1.6,0.1,2.5,0.3
			c0.8,0.2,1.6,0.3,2.4,0.6C64,100.6,64.8,100.9,65.4,101.4z M65.3,101.6c-0.7-0.3-1.5-0.4-2.3-0.5s-1.5-0.1-2.3-0.2
			c-0.8,0-1.6,0-2.3,0.1c-0.4,0-0.8,0.1-1.2,0.1l-1.1,0.1c-0.7,0.1-1.5,0.3-2.2,0.5s-1.4,0.5-2.1,0.8c-0.7,0.3-1.3,0.7-2,1
			c-0.3,0.2-0.6,0.4-0.9,0.6c-0.3,0.2-0.6,0.4-0.9,0.6l-0.3-1.7c1.8,0.9,3.6,1.7,5.5,2.6h0.1l0.1,0.1c0.4,0.2,0.7,0.5,1.1,0.8
			c0.4,0.2,0.8,0.5,1.2,0.7c0.8,0.4,1.6,0.8,2.5,1.1s1.8,0.5,2.7,0.6s1.8,0.2,2.8,0.2c0.9,0,1.9-0.1,2.7-0.3
			c0.2-0.1,0.4-0.1,0.6-0.2l0.3-0.1l0.4-0.1c0.5-0.1,1-0.2,1.5-0.3c1-0.1,2-0.1,2.9-0.1c1,0,1.9,0.1,2.9,0.3l-1.1,0.9
			c0-0.3,0-0.6,0-0.9l0.7,0.9c-0.3-0.1-0.6-0.2-0.8-0.3c-0.3-0.1-0.5-0.3-0.7-0.4c-0.5-0.3-0.9-0.6-1.3-1c-0.2-0.2-0.4-0.4-0.5-0.6
			c-0.2-0.2-0.3-0.5-0.5-0.7l-0.3-0.6c-0.1-0.2-0.2-0.3-0.3-0.5c-0.5-0.7-1.3-1.3-2.1-1.8C67.1,102.5,66.3,102,65.3,101.6
			L65.3,101.6L65.3,101.6z"/>
	</g>
	<path class="st4" d="M126,108.9c0,0,0.7,7.2-3,8.7l3,2c0,0-10.9,7.6-17.9-1.1c0,0-3.7-5.3-5.1-5.2s1.9-1.4,6,0l-2.7-3
		c0,0,11.4,1.9,16.6-1.7L126,108.9z"/>
	<path class="st0" d="M98.1,112.3l8.6,27.8c0,0,1.5,5.3-4,5.9c0,0-3,4.5-12.5,4.9c0,0,0.1-3.7-7.2-5.3c-7.4-1.6-2.3,2.5-2.3,2.5
		s0,1.8-1.7,2.2l-3.6-4.4c0,0-2.7-9.9,2.6-12.2c0,0,2.6-0.8,3.3,1.6c0.7,2.5,3-5-0.8-4.7h-3.3c0,0,4.8-3.6,7.8-10.4s5.2-9.2,7.9-9.2
		C95.4,111,97.3,110.7,98.1,112.3z"/>
	<path class="st4" d="M77,131.9h4.1c0,0,2-0.2,1.3,2.4c-0.7,2.6-0.5,1.4-0.5,1.4s-0.4,1.2-1.2-1.4c-0.9-2.5-4.7-0.4-5.3,2
		c-0.6,2.4,0,9.5,0,9.5l3.6,4.3c0,0,1.9-1.1,1.7-2.2c-0.2-1.1-1.3-3.3,1.4-2.6c2.7,0.7,7.5,1.7,8.1,5.5c0,0,6.7,0.6,12.5-4.9
		l-1.3,7.9l-5.6,3.9l-4.6,3.6l-7.1-2.4l-6.7-2.7l-2.3-3.5v-10.3l-1.8-3.2c0,0-10.9,5.1-6.3,12.9c0,0-11.4,1.8-11.2,8.3
		c0,0-3.6-5.3,4.1-8.9c0,0,0.6-8.5,10.1-12.9c0,0,3.7-2.2,0.9-3.3c0,0-16.5-1.3-19.6,0.7s-15.6,2.7-18.1,9.7l1.7-15
		c0,0,5-14,16.5-12s20.7-2.1,20.7-2.1l7.8,1l-3.1,5.7c0,0-28.3-5.8-32.4,6L77,131.9z"/>
	<path class="st4" d="M128.2,144.1c0,0-3.3-10.5-13.9-8.1l-7.7,4.1l-3.7-12.1l24.5,1.3C127.5,129.4,133.1,124.3,128.2,144.1z"/>
	<path class="st8" d="M108,142.8c0,0,1.4,7.2,5.6,9.2s2.8,7.6,2.8,7.6s-0.1-5.5-4.1-6.9S107.7,144.8,108,142.8z"/>
	<path class="st2" d="M106.3,161.8c0,0,4.4-0.2,2.9-7.5c0,0,5,4.2,0,9.8c0,0-1.9-3.3-4.6,0.8L106.3,161.8z"/>
	<path class="st2" d="M64.9,158.5c0,0-6.5,1.6-7.5,5.1S57.1,154,64.9,158.5z"/>
	<path class="st2" d="M104.9,145.5c0,0,0.1-3.1-2.4-1.5c0,0-2,2.7-4,0.5c-1.9-2.1-9.2,0-9.2,0s-5.6-4.6-6.7,1c0,0,7.8,2.6,7.4,5.5
		c0,0,4.7,0.7,8.5-2.2C98.6,148.7,103.7,146.4,104.9,145.5z"/>
	<path class="st13" d="M99.8,115.2c0,0-10-3-15.1,5.9c0,0,2.8-9.5,8.5-10.2C98.4,110.3,99.8,115.2,99.8,115.2z"/>
	<path class="st14" d="M143.5,106.3l-12.7-2.4l0.1-1.7C130.9,102.2,141.5,100.4,143.5,106.3"/>
	<path class="st4" d="M133,98.9v-2.6c0,0-8.9-2.6-14.9,0c0,0,3.1-6.7,4.3-7c1.2-0.3-11.5,5.1-11.5,5.1l2.8-4c0,0-13,4.9-13.8,9.8
		c0,0,5-1.7,6.7-1c0,0-6.3,3.6-6.7,5.5c-0.4,1.9,0,0,0,0l7.6-1.7c0,0,1.1-3.3,6.9-5c0,0,8.1-0.5,11.6,2.1s0,0,0,0h5.9l0.9-1.2"/>
	<path class="st4" d="M86.8,104.4c0,0,1.7-3.8,5.8-4.1c0,0-3.9-2-5.1-1s7.9-3.6,7.9-3.6L72.8,85.3l-21.6-2.4c0,0,11.7,4.6,13.2,9.5
		c0,0-11.4-3.5-15-2l-6.3-1.3l-3.2,7.2c0,0,6.4,0.4,7.1,0c0.7-0.4,7.4-3.1,14.5-1.6s9.7,4.8,9.7,4.8S84.9,101.7,86.8,104.4"/>
	<path class="st2" d="M39.5,46.5c0,0,0.4,6.3-7.6,18l-9.8,7.2l6.6-7.8L17,72.3l8.2-8.8l5.4-10.4l-21.1,21l13.3-15.5l-13.3,12
		L24.6,51l-10.5,7.9l25.7-27.8L28.9,50.2l13.9-13.5L30.6,58.5C30.6,58.5,36.9,53.9,39.5,46.5z"/>
	<path class="st2" d="M124,62.1c0,0-14.8-8.7-18.3-17.2l-2.8-3.9L88.3,26.5l17.5,13.7C105.8,40.2,110.6,52.5,124,62.1z"/>
	<path class="st2" d="M132,64.4c0,0,5.9,9.7,3,26c0,0,2.9-14.5-9.5-27c0,0,6.4,5,8.2,8.9L132,64.4z"/>
	<path class="st4" d="M73.4,114.9c0,0-17.6,4.1-24-3.5c0,0,7.1,2.5,12.6,0.8c0,0-14.7-0.1-19.2-6.4c0,0-2.1,10.8,16.7,16.8
		C59.6,122.6,67.8,123.6,73.4,114.9z"/>
	<path class="st4" d="M94,114.8v7.4c0,0-2.8,3.7-0.7,7c0,0-3.3,6.6-7.1,8.5c-3.7,1.9-0.2,3.7-0.2,3.7s-3.3,2.5-0.5,4.3
		c0,0-6.6-2.7-5,2.7c0,0-5.1-1.8-5.4-5.7s1.4-3.7,1.4-3.7s-1.1-6.7,5-4.7c0,0,1.3-3-0.6-3.5l-4.1-0.2c0,0,2.3,0.8,7.6-9.5
		c1.5-3,3.2-3.5,3.2-3.5S92,113,94,114.8z"/>
	<g>
		<path class="st5" d="M135,90.4c0,0-8.1-5.9-24.2,4.1c0,0-0.3-3.1,6.6-5.8c6.8-2.7,6.2-2.7,6.2-2.7S131.1,80.9,135,90.4z"/>
		<path class="st2" d="M135,90.4C137.7,92.3,135,90.4,135,90.4s-1.8-4.9-5.5-5.6c-1.7-0.3,0,0,0,0s1.9,1,2.6,1.9
			c0,0-2.5-1.7-4.7-1.3c0,0,2.5,0.1,4.2,1.5c0,0-4.4-1.3-6.7-0.1c0,0,4.5-0.9,6.6,1.3c0,0-2.1-1.1-4.1-0.7c0,0,2.9,0.3,3.9,1.1
			c0,0-2.8-0.3-3.7,0.2"/>
		<path class="st15" d="M122.3,89.4c0,0-8.2,2.6-11.5,5.1c0,0-0.6-2.2,4.3-4.9c0,0-2.9,2-2.9,2.8C112.2,93.3,118.6,89.1,122.3,89.4z
			"/>
	</g>
	<g>
		<path class="st16" d="M79.8,91.9c0,0-11.7-13.4-24-13.2c-12.3,0.1-20.9,4.9-21,6.6c0,0,13.8-5.2,24.8-0.6
			C70.5,89.2,79.8,91.9,79.8,91.9z"/>
		<path class="st5" d="M69.9,83.5l4.1,3l-7.9-3.7l3.4,2.9l-6.7-2.9l3.4,2.4l-5.6-2.4l10.2,6l-14.3-5.3c0,0-8.9-2.7-21.7,1.7
			c0,0,3.8-5.6,21-6.6C55.8,78.7,63.9,79,69.9,83.5z"/>
	</g>
	<path class="st2" d="M88.5,147.1c0,0-6.1-5.7-9.1-3.1c0,0-1.1,3.3,1.4,4.3C80.7,148.3,78.1,144.4,88.5,147.1z"/>
	<path class="st17" d="M119.2,104.1c0,0,1,4.2-3,6.2c0,0-3.8,0.4-5.4-0.8c0,0-2.5-1.8-2.8-3.3L119.2,104.1z"/>
	<path class="st10" d="M115.2,104.8l0.3,0.9c0,0-2.3,3-4.7-0.3C110.8,105.3,114.3,104.5,115.2,104.8z"/>
	<path class="st17" d="M66.1,101.7c0,0,0.4,3-1,4.6c-1.4,1.6-2.5,2.7-4.8,2.6c-2.3-0.1-7.1-1.4-7.2-7.2l3.3-1.5
		C56.4,100.2,65.2,100.9,66.1,101.7z"/>
	<path class="st10" d="M61.5,100.8c0,0,1.1,1.1,0,2.9s-4.7,0.8-4.3-2c0,0-0.1-1.2,1.8-1.5L61.5,100.8z"/>
	<path class="st10" d="M56.7,100.3l-9.9,4.5l5.5-3.3l-7.6,2.1C44.7,103.6,54.3,99.1,56.7,100.3"/>
	<path class="st18" d="M65.5,103.7L64,103v1.5l-1-1.5v2.8l-0.7-1.3l-0.5,1.7l-0.8-0.9l-0.8,0.8l-0.7-0.9l-2-0.5l-0.1,1.5
		c0,0-2-0.5-3.2-3.2l1.9,4.6c0,0,3.5,2.9,6.8,0.5c3.3-2.4,0,0,0,0S66,105.9,65.5,103.7"/>
	<path class="st18" d="M119.2,107c0,0-0.5,1.9-1.5,2.7l-1.5,1.3H115c0,0-3.3,0-4.6-1.4l-0.6-2.2l1.2,1.2l1.5-0.6l1.4,1.2l1.4-0.5
		l-0.8,0.9l2.4-1.1l-0.7,1C116.2,109.5,118.6,108.4,119.2,107z"/>
	<path class="st2" d="M22,98v6.5l3.3,4.5l1.2,6.7C30,130.2,40.8,131,40.8,131c11.7,4.3,29.9,1.6,29.9,1.6
		c11.3-1.6,12.2-10.8,17.1-18s10.2-2.5,10.2-2.5l4.5,13.9c2,9.4,17.2,7.2,17.2,7.2c14.5-0.2,21.5-7.6,21.5-7.6s3.9-5.7,4.7-9
		s4.5-8.6,4.5-8.6l1-6.3l-17-3.9l-1.7,0.9l2.6,1c-16.6-0.4-34.1,4.7-34.1,4.7c-4.7,1.8-14.8-0.2-14.8-0.2
		c-2.1-2.7-15.5-5.1-15.5-5.1l-34.8-2.9C22.6,95.2,22,98,22,98z M109.2,105.7c7.6-1.5,25.1-3.4,25.1-3.4s13.4-1.6,9,12.6
		s-15.8,14.5-15.8,14.5s-18.4,4.9-22.8-5.3c0,0-1.5-0.3-1.6-8.6C103.1,115.5,101.6,107.2,109.2,105.7z M30.3,102.2
		c0,0,2.6-4.6,22.8-2.4c17.8,1.9,29.7,5.6,30,6c0.3,0.4,3.4,4.9-2.7,15.1s-17.6,9.6-17.6,9.6s-15,0.5-21.8-2.8
		c-6.8-3.3-10.2-3.1-12-15.9C28.9,111.8,27.9,103.2,30.3,102.2z"/>
	<g>
		<path class="st19" d="M103.1,115.5c0,0-1.5-8.3,6.1-9.8s25.1-3.4,25.1-3.4s13.4-1.6,9,12.6s-15.8,14.5-15.8,14.5
			s-18.4,4.9-22.8-5.3C104.7,124.1,103.2,123.8,103.1,115.5z"/>
		<path class="st19" d="M30.3,102.2c0,0,2.6-4.6,22.8-2.4c17.8,1.9,29.7,5.6,30,6s3.4,4.9-2.7,15.1s-17.6,9.6-17.6,9.6
			s-15,0.5-21.8-2.8c-6.8-3.3-10.2-3.1-12-15.9C28.9,111.8,27.9,103.2,30.3,102.2z"/>
	</g>
	<path class="st5" d="M108,161.3l-5.1,7.2c0,0-1.9,6.8-9.3,10.8S77.7,180,77.7,180s-9-4.1-11.5-10.9c-2.5-6.8-5.9-8.4-5.9-8.4
		s6.4-1.5,11.2,0c4.8,1.5,14-0.8,18,2.7c0,0,3.6-3.3,14.7-1.9L108,161.3z"/>
	<path class="st4" d="M98.6,178.4c0,0-5.5,3.3-10.2,3.6s-9.2-1.5-12.6,0s-8.9-5.1-8.9-5.1s0,9,8.2,11.2s9.1-1.2,9.1-1.2
		S93.9,190.4,98.6,178.4z"/>
	<path class="st4" d="M21.4,114.9c0,0-1.2,13.5,1.4,15.7c0,0-5.1,0.2-6.7-5.4c0,0-0.2-6.1,1.2-8.4C18.8,114.6,17.1,125.8,21.4,114.9
		z"/>
	<circle class="st20" cx="21" cy="131.2" r="3.2"/>
	<path class="st2" d="M23.5,133.5c0,0-3.4,0.9-4-1.8l-0.6-2.7c0,0-1.6,1.1-0.8,3.4C18.6,133.8,20.7,135.7,23.5,133.5z"/>
	<polygon class="st3" points="16.8,134.5 18.6,134.3 17.8,133 19,134.2 19.7,132 19.7,134.3 21.2,133.5 20.1,134.5 21.7,135.2
		19.9,135 20.5,136.8 19.6,135.2 18.9,137 18.9,135.1 17.5,136.3 18.6,134.8 	"/>
	<path class="st4" d="M99.5,167.4c0.2-0.1,1.6-0.4,1.6-0.4l0.4,1.8h-1.1l0.5,0.8h-1.3c0,0-0.5,3.6-2.6,4.4l0.1-0.1v0.6l-1.1-0.9
		l-0.5,1.6l-0.4-1.3l-0.6,1.3l-0.8-1c0,0-0.1,1-1.5,1l0.7,0.9l-1.9,0.3l-0.9-1.4v1.6l-4.9-1v1l-1.6,0.4v-2c0,0-1.7,1.8-1.3,2.6
		l-1.1-2.1l-0.8,0.5l-1.5-0.2l-0.5,1.8l-0.2-1.7l-1.6-2.5v1.2l-1.3-2.4l-1,1.7l-0.5-2.5l-0.9,1.6l-0.5-2.3l-0.9,0.7l-1.4-1.9l-1,0.5
		l-0.5-1.6l2.1-0.4l3.5,0.8l2,1.1c0,0,1,0.1,1.2,0.1s1.9,0.5,1.9,0.5s6.2,1.2,14.2,0.3C93.5,170.6,98.5,168.2,99.5,167.4z"/>
	<path class="st21" d="M85,171.4l2.4,0.5l-4.1-0.2l-4-0.2l-3-0.9l-2.2-1.1C74.2,169.5,83.7,171,85,171.4z"/>
	<path class="st2" d="M104.9,163l-10.3,2.4c0,0-4.8,0.8-6.3,0c0,0-8.3,0.2-13.7-2.4c0,0-4.8,0.5-6.4-1l-6.3-1.6c0,0,9.4,2.8,12,5.8
		c0,0,11.9,3.4,18.2,1.9C92,168,99.6,167.1,104.9,163z"/>
	<path class="st21" d="M95,165.8c0,0-0.1,1.7-2,1.9c-1.9,0.1-4.9,1-5.2,0c0,0-1.2,0.8-2.5,0.5c0,0-4.3,0-4.5-0.6
		c-0.2-0.5-1.2-1.4-1-2.2c0,0-1.3,1.3-2.2,0.9c-1-0.4-1.3-0.5-1.3-0.5l-1.7-0.6l-0.3-1.2l0.7-0.4l5.7,1.7c0,0,6.9,0.8,8,0.6
		C88.7,165.8,91,166.7,95,165.8z"/>
	<polygon class="st6" points="140.5,121 131.5,115.6 135.1,120.2 122.7,115.1 128.5,121 117.4,116.3 120.4,120.4 106.6,115.3
		123.6,123.1 120.4,118.9 130.7,123.1 128.1,119.1 138.6,123.1 135,118.6 	"/>
	<polygon class="st6" points="73.5,118.9 64.5,113.6 68,118.2 55.6,113 61.4,118.9 50.3,114.2 53.3,118.4 39.5,113.3 56.5,121.1
		53.3,116.9 63.7,121.1 61,117 71.5,121.1 67.9,116.5 	"/>
</g>
</svg>
